<?xml version="1.0" encoding="UTF-8"?>
<svg width="1160px" height="1100px" viewBox="0 0 1160 1100" version="1.1" xmlns="http://www.w3.org/2000/svg" xmlns:xlink="http://www.w3.org/1999/xlink">
    <!-- Generator: Sketch 54.1 (76490) - https://sketchapp.com -->
    <title>mm-brandmark</title>
    <desc>Created with Sketch.</desc>
    <g id="mm-brandmark" stroke="none" stroke-width="1" fill="none" fill-rule="evenodd">
        <path d="M0,0 C227.547518,70.1145242 427.588116,202.630174 579.973242,377.44941 C732.4654,202.630174 932.425724,70.1145242 1160,0 L1160,1100 L1006.73187,1100 L1006.73187,229.613723 C879.20465,298.34037 766.795534,391.19474 675.498247,502.064832 C792.429415,675.60295 867.377745,879.674382 885.305407,1100 L799.01181,1100 L731.288061,1100 L428.685182,1100 L321.199483,1100 L274.667835,1100 C292.622255,879.674382 367.543827,675.60295 484.501753,502.064832 C393.204466,391.19474 280.768592,298.34037 153.268131,229.613723 L153.268131,1100 L0,1100 L0,0 Z M454.12766,945.209581 L705.87234,945.209581 C679.48429,835.214058 636.674031,731.724938 579.986605,637.275449 C523.352759,731.724938 480.51571,835.214058 454.12766,945.209581 Z" id="MM-Brandmark" fill="#F4F6F8"></path>
    </g>
</svg>