<?xml version="1.0" encoding="UTF-8"?>
<svg width="1208px" height="1317px" viewBox="0 0 1208 1317" version="1.1" xmlns="http://www.w3.org/2000/svg" xmlns:xlink="http://www.w3.org/1999/xlink">
    <!-- Generator: Sketch 59.1 (86144) - https://sketch.com -->
    <title>dark_brandmark</title>
    <desc>Created with Sketch.</desc>
    <g id="dark_brandmark" stroke="none" stroke-width="1" fill="none" fill-rule="evenodd" opacity="0.15">
        <path d="M1149.19611,277.174745 L1149.19611,1317 L1004.45912,1317 L1004.45912,494.227607 C884.030274,559.19461 777.878029,646.969445 691.662495,751.774465 C800.980861,914.178851 871.442177,1104.87187 889.26742,1310.75644 L889.791453,1317 L313.142945,1317 C330.097993,1108.72714 400.849311,915.8193 511.297171,751.774465 C425.943792,648.017495 321.025678,560.951809 202.108376,496.183454 L198.500542,494.227607 L198.500542,1317 L53.7635605,1317 L53.7635605,277.174745 C268.64542,343.453702 457.551438,468.720175 601.454565,633.976044 C745.458765,468.720175 934.288978,343.453702 1149.19611,277.174745 Z M601.454565,879.790997 C548.571492,968.261673 508.442646,1065.11508 483.495292,1168.02557 L482.743961,1171.14593 L720.190437,1171.14593 C695.301134,1067.07257 654.922346,969.155316 601.454565,879.790997 Z M124.290294,0 C192.961061,0 248.656467,55.6670174 248.656467,124.308673 C248.656467,193.000913 192.961061,248.617347 124.290294,248.617347 C55.6954065,248.617347 0,193.000913 0,124.308673 C0,55.6670174 55.6954065,0 124.290294,0 Z M1083.70971,0 C1152.35518,0 1208,55.6670174 1208,124.308673 C1208,193.000913 1152.35518,248.617347 1083.70971,248.617347 C1015.03894,248.617347 959.343533,193.000913 959.343533,124.308673 C959.343533,55.6670174 1015.03894,0 1083.70971,0 Z" id="MM-Brandmark" fill="#B9B9B9"></path>
    </g>
</svg>