<?xml version="1.0" encoding="UTF-8"?>
<svg width="1318px" height="1209px" viewBox="0 0 1318 1209" version="1.1" xmlns="http://www.w3.org/2000/svg" xmlns:xlink="http://www.w3.org/1999/xlink">
    <!-- Generator: Sketch 59.1 (86144) - https://sketch.com -->
    <title>light_brandmark_rotated</title>
    <desc>Created with Sketch.</desc>
    <g id="light_brandmark_rotated" stroke="none" stroke-width="1" fill="none" fill-rule="evenodd" opacity="0.25">
        <path d="M1204.19611,223.174745 L1204.19611,1263 L1059.45912,1263 L1059.45912,440.227607 C939.030274,505.19461 832.878029,592.969445 746.662495,697.774465 C855.980861,860.178851 926.442177,1050.87187 944.26742,1256.75644 L944.791453,1263 L368.142945,1263 C385.097993,1054.72714 455.849311,861.8193 566.297171,697.774465 C480.943792,594.017495 376.025678,506.951809 257.108376,442.183454 L253.500542,440.227607 L253.500542,1263 L108.763561,1263 L108.763561,223.174745 C323.64542,289.453702 512.551438,414.720175 656.454565,579.976044 C800.458765,414.720175 989.288978,289.453702 1204.19611,223.174745 Z M656.454565,825.790997 C603.571492,914.261673 563.442646,1011.11508 538.495292,1114.02557 L537.743961,1117.14593 L775.190437,1117.14593 C750.301134,1013.07257 709.922346,915.155316 656.454565,825.790997 Z M179.290294,-54 C247.961061,-54 303.656467,1.66701736 303.656467,70.3086735 C303.656467,139.000913 247.961061,194.617347 179.290294,194.617347 C110.695406,194.617347 55,139.000913 55,70.3086735 C55,1.66701736 110.695406,-54 179.290294,-54 Z M1138.70971,-54 C1207.35518,-54 1263,1.66701736 1263,70.3086735 C1263,139.000913 1207.35518,194.617347 1138.70971,194.617347 C1070.03894,194.617347 1014.34353,139.000913 1014.34353,70.3086735 C1014.34353,1.66701736 1070.03894,-54 1138.70971,-54 Z" id="MM-Brandmark" fill="#FFFFFF" transform="translate(659.000000, 604.500000) rotate(-270.000000) translate(-659.000000, -604.500000) "></path>
    </g>
</svg>