<?xml version="1.0" encoding="UTF-8"?>
<svg width="2615px" height="1038px" viewBox="0 0 2615 1038" version="1.1" xmlns="http://www.w3.org/2000/svg" xmlns:xlink="http://www.w3.org/1999/xlink">
    <!-- Generator: Sketch 59.1 (86144) - https://sketch.com -->
    <title>light_swoop</title>
    <desc>Created with Sketch.</desc>
    <g id="light_swoop" stroke="none" stroke-width="1" fill="none" fill-rule="evenodd" opacity="0.25">
        <g id="Swoops-2" transform="translate(1331.000000, 381.500000) rotate(-4.000000) translate(-1331.000000, -381.500000) translate(-50.000000, -352.000000)" fill="#FFFFFF" fill-rule="nonzero">
            <path d="M2425.18795,0.847998302 C2305.82237,242.844473 2003.51251,491.043593 1578.3362,690.813086 C1129.19379,901.843068 576.370189,1044.22135 0.513635194,1088.91074 L26.1202715,1317.848 C640.349891,1270.18066 1230.69086,1118.13988 1713.95275,891.078826 C2188.71773,668.010053 2534.60875,384.030403 2680.51364,88.2293252 L2425.18795,0.847998302 Z" id="Stroke-1" opacity="0.5" transform="translate(1340.513635, 659.347998) scale(-1, 1) translate(-1340.513635, -659.347998) "></path>
            <path d="M2505.9911,149.847497 C2386.62552,391.843971 2084.31567,640.043091 1659.13935,839.812584 C1209.99694,1050.84257 657.173341,1193.22085 81.316788,1237.91024 L106.923424,1466.8475 C721.153044,1419.18016 1311.49401,1267.13938 1794.7559,1040.07832 C2269.52088,817.009551 2615.41191,533.029902 2761.31679,237.228824 L2505.9911,149.847497 Z" id="Stroke-1" transform="translate(1421.316788, 808.347497) scale(-1, 1) translate(-1421.316788, -808.347497) "></path>
        </g>
    </g>
</svg>